<svg xmlns="http://www.w3.org/2000/svg" xmlns:xlink="http://www.w3.org/1999/xlink" viewBox="0 0 508.42 676.31"><defs><style>.cls-1{fill:none;}.cls-2{clip-path:url(#clip-path);}.cls-3{clip-path:url(#clip-path-2);}.cls-4{opacity:0.6;}.cls-5{clip-path:url(#clip-path-3);}</style><clipPath id="clip-path" transform="translate(0 0)"><rect class="cls-1" width="508.42" height="676.31"/></clipPath><clipPath id="clip-path-2" transform="translate(0 0)"><rect class="cls-1" width="508.42" height="676.31"/></clipPath><clipPath id="clip-path-3" transform="translate(0 0)"><rect class="cls-1" x="-127.44" y="-97.46" width="763.3" height="781.26"/></clipPath></defs><g id="Layer_2" data-name="Layer 2"><g id="Layer_1-2" data-name="Layer 1"><g class="cls-2"><g class="cls-3"><g class="cls-4"><g class="cls-5"><path d="M487.67,541.13a17.89,17.89,0,0,1,3.82,11.63L364.66,662.44,22.09,603.81C26,580.55,50.8,567.88,59.72,564L340.86,607l.93,1.06h0c.62.65,1.4,1.5,2.07,2.31s1.37,1.69,2.06,2.54q2,2.63,3.82,5.39a86,86,0,0,1,6.43,11.63c.48,1,.94,2,1.34,3s.85,2.06,1.24,3.1c.7,2.11,1.51,4.2,2,6.36a82.4,82.4,0,0,1,2.56,13.17v.1a1.84,1.84,0,0,0,3.67-.31,87.47,87.47,0,0,0-1.5-14.06c-.37-2.35-1-4.62-1.58-6.93-.32-1.14-.69-2.26-1-3.4s-.73-2.26-1.14-3.37a93.59,93.59,0,0,0-5.81-13c-1.13-2.1-2.35-4.16-3.64-6.2-.66-1-1.32-2-2-3l-.55-.77,104.44-76.66c15.49.77,27.35,5.42,33.48,13.2M95,223V558.09l-27.57-4.43V221Zm216.23,16.12V592.82L100.67,559V223.45Zm30.13,2.25V597.66l-24.62-4V239.56Zm106.9-29.08V521.86l-99.85,76.61V241.93L363,243l1.3.09ZM10.6,206.06V195.43l.93-.31L322,212.85l.07-1L26.59,190.05l156.82-52.8L187,136v-.83c13.33.24,79,1.45,93.8,2.24a1.26,1.26,0,0,0,1.31-1.15A1.24,1.24,0,0,0,281,135c-16.52-1.34-33-2.4-49.58-3.4-8.27-.49-16.53-1-24.81-1.36l-12.43-.55c-2.08-.08-4.15-.15-6.24-.19l-.91,0V80.85L293.18,86l-.09,53.55,73.23,73.85a.89.89,0,0,0,.63.26.85.85,0,0,0,.61-.25.9.9,0,0,0,0-1.26l-70.25-74.3.94-51.6,9.68.47h.12l27.1-3v46.48l-20.3,5a.74.74,0,0,0,.24,1.46l20.06-1.87V136l162.35,33.53.17,13.35L362.58,229.41ZM167.05,68.29V61.72l2.79-1.34,127.51,5.2L178.85,56l90.09-43.54a3.15,3.15,0,0,0,.44.95l17.06,24.09,8.52,12c2.82,4,5.75,8,8.41,12.11a.77.77,0,0,0,1.08.24.78.78,0,0,0,.24-1.08c-2.65-4.14-5-8.44-7.54-12.68l-7.43-12.75-11-18.94,83.91,45.11v7.33l-54.78,4.27ZM504.84,191.6l3.58-1.29L508,160.83,345.8,127.32V82.58L374,79.45V54.66L270.42.71,269.06,0l-1.67.8L156.46,54.13l-.84.41V79.32l20.79,1v48.09L3.61,186.59,0,187.81V216l4.93.35L56,220.13v334.4A96.46,96.46,0,0,0,36,565.2c-16.34,11.46-25.27,26.39-25.8,43.16l-.17,5L365.9,675.85l2.67.46L501.72,559l.36-.32.42-1.84a29,29,0,0,0-5.7-22.62c-7.5-9.66-21-15.2-40.07-16.47V209.23Z" transform="translate(0 0)"/><path d="M128.75,273.45l142.17,16.8,3.57,258a3,3,0,0,0,6.06,0l2.33-263.34.05-5.56-5.49-.41L129.29,267.79a2.84,2.84,0,0,0-.54,5.66" transform="translate(0 0)"/><path d="M264.91,557.65a3,3,0,0,0,1-6l-132.49-24L130,285.92a2.84,2.84,0,0,0-5.68,0l-2.91,246.74-.06,5.22,5.13.71Z" transform="translate(0 0)"/><path d="M368.72,286.63l60.94-25,3.82,235.82a3,3,0,0,0,6.06,0l2-244.74.07-9.86L433,247.25l-66.67,34.22a2.86,2.86,0,0,0-1.33,3.61,2.83,2.83,0,0,0,3.71,1.55" transform="translate(0 0)"/><path d="M360,565.68l9.51-6.87,67.32-48.67a3,3,0,0,0-3.38-5.05l-61.4,38-3-248.42a2.84,2.84,0,0,0-5.68,0l-3.18,259.13Z" transform="translate(0 0)"/></g></g></g></g></g></g></svg>