<svg xmlns="http://www.w3.org/2000/svg" xmlns:xlink="http://www.w3.org/1999/xlink" viewBox="0 0 358.74 747.49"><defs><style>.cls-1{fill:none;}.cls-2{clip-path:url(#clip-path);}.cls-3{clip-path:url(#clip-path-2);}.cls-4{opacity:0.6;}.cls-5{clip-path:url(#clip-path-3);}</style><clipPath id="clip-path" transform="translate(0 0)"><rect class="cls-1" width="358.74" height="747.49"/></clipPath><clipPath id="clip-path-2" transform="translate(0 0)"><rect class="cls-1" width="358.74" height="747.5"/></clipPath><clipPath id="clip-path-3" transform="translate(0 0)"><rect class="cls-1" x="-138.14" y="-105.64" width="635.03" height="861.26"/></clipPath></defs><g id="Layer_2" data-name="Layer 2"><g id="Layer_1-2" data-name="Layer 1"><g class="cls-2"><g class="cls-3"><g class="cls-4"><g class="cls-5"><path d="M343.63,121.74l-47.54.44-5.64,27.3H254.7c.88-9.53.91-17.08.9-19a5.42,5.42,0,0,0-2.5-4.46c-.09-.15-.18-.28-.28-.42-.57-.87-1.15-1.7-1.74-2.53-1.21-1.65-2.41-3.28-3.72-4.84a76.26,76.26,0,0,0-8.42-8.83,56,56,0,0,0-10.07-7.17A40.83,40.83,0,0,0,217,97.88a37,37,0,0,0-12.68-.06,23.21,23.21,0,0,0-3.09.64c-1,.27-2,.5-3,.82a53.79,53.79,0,0,0-5.76,2.34A82.35,82.35,0,0,0,174.16,114a5.38,5.38,0,0,0-3.5,3.45c-.34,1.06-1.1,3.55-2,6.86L114,84.59l6.83-27.32,88.9-9.46,87.17,66.51a2.17,2.17,0,0,0,1.34.45,2.2,2.2,0,0,0,1.34-4l-87.87-67-.69-.53-89.41,9.51L84.43,31.2l2.47-5.6,129-14.16L345.4,117.58Zm-99,8.76a201.52,201.52,0,0,1-1.4,22.8,5.24,5.24,0,0,0-.34,1.68c0,.14.07.25.08.39-1.83,14.13-5.46,29.22-12.32,35.21a8.31,8.31,0,0,1-7,2.18,2.44,2.44,0,0,0-.27,0,5.66,5.66,0,0,0-1.16.08,5.84,5.84,0,0,0-1,.14,6,6,0,0,0-.95.46l-.12.06c-1.28-.46-2.56-.93-3.87-1.33a86.18,86.18,0,0,0-11.86-2.79,79.25,79.25,0,0,0-12.09-1c-2.33,0-4.64.11-7,.29a5.4,5.4,0,0,0-2.66-2.67c-9.86-4.4-9.3-23.32-8.09-34.21a183.72,183.72,0,0,1,6.54-31,5.06,5.06,0,0,0,.15-1.34,54.24,54.24,0,0,1,14.37-11.32,36.32,36.32,0,0,1,4.83-2.15c.82-.29,1.66-.5,2.5-.76a15.78,15.78,0,0,1,2.52-.56,27.44,27.44,0,0,1,10.22.06c6.73,1.36,12.89,5.26,17.92,10.33a56.2,56.2,0,0,1,6.85,8.34c1,1.5,2,3,2.86,4.61.43.79.86,1.58,1.25,2.38a0,0,0,0,1,0,0s0,.08,0,.13m-47.16,69.57c-3.13-2.21-6.36-4.25-9.54-6.37l-1.39-.89c1.86,0,3.72.08,5.56.25a74.05,74.05,0,0,1,11.2,1.92A77.93,77.93,0,0,1,214,198.5c1.24.49,2.45,1.05,3.66,1.61a5.64,5.64,0,0,0,.4.67,5,5,0,0,0,.53.89,6,6,0,0,0,.74.67,5.14,5.14,0,0,0,.91.68c.08,0,.13.12.22.16a48.73,48.73,0,0,1,5.3,2.9l-2.69,13.11q-12.45-10.12-25.64-19.12m45.31,51.34A135.07,135.07,0,0,1,256,268.77c.93,1.54,1.83,3.08,2.71,4.64s1.7,3.14,2.38,4.76a56.66,56.66,0,0,1,3.57,9.81,40.38,40.38,0,0,1,1.39,9.95,26.83,26.83,0,0,1-.37,4.78,19.92,19.92,0,0,1-.49,2.25c-.09.37-.21.71-.33,1.06l-.18.53-.13.32-.14.4c-.08.25-.15.49-.21.74a26.18,26.18,0,0,1-3.55,8.74,28.92,28.92,0,0,1-6.46,7.05,43.41,43.41,0,0,1-8.63,5.23,68.3,68.3,0,0,1-9.89,3.58c-13.75,3.84-28.64,4.69-43.41,4.67-29.66-.27-59.53-4.19-89.07-9.43-11.61-2.12-23.17-4.61-34.63-7.4.37-.06.73-.1,1.1-.18a52.88,52.88,0,0,0,9-2.7A54.26,54.26,0,0,0,87,313.39,61.44,61.44,0,0,0,94.53,308a80.85,80.85,0,0,0,12.62-13.22,124.78,124.78,0,0,0,17.08-31.56,167.09,167.09,0,0,0,8.92-34.51,136.83,136.83,0,0,0,1.46-21.65s0,0,0-.07a90.45,90.45,0,0,0-1.21-14.24,57.6,57.6,0,0,0-6.21-17.47c-.71-1.39-1.6-2.69-2.41-4s-1.78-2.57-2.79-3.76c-.47-.58-1-1.11-1.47-1.67A350.77,350.77,0,0,1,153.8,184q9.63,5.86,19.16,11.95c3.18,2,6.38,4.06,9.48,6.14s6.29,4.08,9.34,6.25a352.25,352.25,0,0,1,35.29,27.47c5.47,5,10.77,10.17,15.68,15.64M193,373.67A17.89,17.89,0,0,0,185,370a17.21,17.21,0,0,0-2.66-.25c-.86,0-1.57.06-2.36.1l-1.15.08-1.16.21a22,22,0,0,0-2.31.48,24.28,24.28,0,0,0-8.44,4.26,26.44,26.44,0,0,0-6.1,6.78,33.38,33.38,0,0,0-3.71,7.84,43.66,43.66,0,0,0-1.87,8.17c-.12,1.36-.33,2.74-.34,4.11l-.06,2,0,1.86,0,4.6c-.13-.21-.28-.4-.4-.63a23.39,23.39,0,0,1-2.25-8.18,59.53,59.53,0,0,1-.26-9.18c.07-1.56.18-3.12.34-4.66s.35-3.12.58-4.46v0s0-.07,0-.09a7.22,7.22,0,0,0,.08-.8s0,0,0,0c.44-5.08,2.19-27.29,2.31-28.87a18.31,18.31,0,0,0-.65-6.11,354.59,354.59,0,0,0,37.79,1.93c4.34,0,8.7-.24,13.06-.52A201.82,201.82,0,0,0,193,373.67m.59,67.45-7.82,13.28c-.08.14-.09.3-.16.44h-.31v.9a5.38,5.38,0,0,0,0,3.13c.28,44.92.58,71.46.76,87.39.28,24.82.28,24.82-.53,30.43L185.4,578c-1.41,9.85-16.94,9.11-17.71,9.08h-.29c-.67,0-16.07.63-17.48-9.23l-.19-1.29c-.82-5.61-.82-5.61-.53-30.39.19-16.19.49-43.28.77-89.57l0-1.89h-2.34c0-.07-.05-.14-.09-.2l-6.85-9.38.65-48v-.27a22.57,22.57,0,0,1,.8-6.36c.07.7.1,1.39.17,2.09A68,68,0,0,0,144.26,403a30.25,30.25,0,0,0,4.68,10.18,14.65,14.65,0,0,0,4.62,4.09,8.46,8.46,0,0,0,1.09.42l0,2.56-.29,29.25.86,3,8.37,7.16a2.4,2.4,0,0,0,2.17.48,2.37,2.37,0,0,0,1.66-2.91l-2.91-10.63.86,3,.28-29.36.14-14.68,0-1.81.05-1.6c0-1.09.19-2.13.26-3.2a33.52,33.52,0,0,1,1.39-6.09,22.68,22.68,0,0,1,2.53-5.37,15.57,15.57,0,0,1,3.63-4.07,13.2,13.2,0,0,1,4.56-2.31,12.4,12.4,0,0,1,1.27-.26l.64-.13.67,0c.43,0,.94-.08,1.3-.07a5.27,5.27,0,0,1,1,.1,7.27,7.27,0,0,1,3.68,1.92,17.44,17.44,0,0,1,3.35,4.41,35.73,35.73,0,0,1,2.56,5.78c.35,1,.68,2.08,1,3.14.14.53.28,1.06.4,1.58.08.35.16.71.23,1ZM172.12,681.27l-4.27,34.49-4.49-33.87-7.8-61.63L156,604.7l.11-8v-.9a37.14,37.14,0,0,0,11.5,1.34c.58,0,1.19.05,1.83.05a36.61,36.61,0,0,0,9.86-1.34l-.11,8.42.17,15.22Zm-45.35-474.1c0,1.19.08,2.37.06,3.56a138.59,138.59,0,0,1-1.43,16.87,158,158,0,0,1-8.46,32.89,117.25,117.25,0,0,1-16,29.58,71.79,71.79,0,0,1-12.31,12.62,3.69,3.69,0,0,0-2.45-.4,28.93,28.93,0,0,1-6,.64,14,14,0,0,1-2.71-.29,10.43,10.43,0,0,1-1.25-.33c-.38-.1-.93-.35-1.4-.52a34.59,34.59,0,0,1-10.49-6.41c-6.14-5.54-10.11-13.36-12.15-21.69a78.7,78.7,0,0,1-1.43-26,112,112,0,0,1,2.07-13.09,94,94,0,0,1,3.62-12.69,73.47,73.47,0,0,1,12.87-22.56,52.58,52.58,0,0,1,9.42-8.67,41.46,41.46,0,0,1,5.41-3.25A35.58,35.58,0,0,1,90,185.1a29.15,29.15,0,0,1,6-1.2,27.46,27.46,0,0,1,6.08,0,28.2,28.2,0,0,1,5.88,1.33,24.51,24.51,0,0,1,5.31,2.68,30.52,30.52,0,0,1,8.43,8.69,45.57,45.57,0,0,1,5,10.53M60.09,313.63a54.72,54.72,0,0,1-8.08-.44,59.11,59.11,0,0,1-7.94-1.64l-1-.26a1.82,1.82,0,0,1-.34-.11l-.44-.17c-.62-.24-1.26-.51-1.88-.79-1.26-.54-2.5-1.14-3.73-1.77a60.61,60.61,0,0,1-7-4.19c-.47-.34-.91-.69-1.37-1a57.32,57.32,0,0,1-4.64-5.33A64.62,64.62,0,0,1,14,279.28a89.28,89.28,0,0,1-3.85-21c-.64-14.36,1.9-28.9,6.32-42.85A133.32,133.32,0,0,1,25,195.41a98.24,98.24,0,0,1,12.23-17.67c9.42-10.67,21.91-18.45,35.65-21l2.58-.47c.85-.16,1.73-.16,2.6-.25a41.43,41.43,0,0,1,5.21-.27l2.61,0,2.6.22c1.74.08,3.49.44,5.23.69.62.11,1.23.27,1.84.39s1,.29,1.52.49a47.17,47.17,0,0,1,13.77,8.48c6.54,5.8,11,13.7,13.42,22.14a36.19,36.19,0,0,0-7.13-6.2,34.87,34.87,0,0,0-6.88-3.31,35.72,35.72,0,0,0-7.42-1.58,36.74,36.74,0,0,0-14.8,1.6,42.06,42.06,0,0,0-6.81,2.82A47.92,47.92,0,0,0,75,185.38a59,59,0,0,0-10.54,9.78,79.54,79.54,0,0,0-13.91,24.58,110.35,110.35,0,0,0-3.84,13.49A120.8,120.8,0,0,0,44.48,247a86.48,86.48,0,0,0,1.41,28.16,56.27,56.27,0,0,0,4.94,13.57,44.12,44.12,0,0,0,8.86,11.74,42.19,42.19,0,0,0,12.45,8c.6.24,1.07.48,1.78.71a16.11,16.11,0,0,0,2,.6c.22,0,.44,0,.66.09-.29.13-.56.31-.86.43a46.18,46.18,0,0,1-7.68,2.32,50.56,50.56,0,0,1-8,.94M219.25,0,79.4,15.35l-9,20.43L109.24,58.3l-7.7,30.83,64.38,46.75c-2.67,13.06-4.7,30.31-.94,43.37-2-1.25-4-2.53-6.06-3.77-13.09-7.82-26.39-15.46-40.8-21.5a108.74,108.74,0,0,0-22.69-6.92c-2-.3-4-.69-6-.81l-3-.26-3.08,0a51.77,51.77,0,0,0-6.11.3c-1,.11-2,.12-3.05.3l-3,.53a68.79,68.79,0,0,0-22.74,8.61,78.49,78.49,0,0,0-18.53,15.42,108.45,108.45,0,0,0-13.6,19.55A143.8,143.8,0,0,0,7,212.34C2.25,227.21-.59,242.91.1,258.85a99.39,99.39,0,0,0,4.3,23.59A74.74,74.74,0,0,0,15.5,304,58.49,58.49,0,0,0,34,320.42l2.89,1.4a26.28,26.28,0,0,0,2.91,1.25c1.93.73,3.77,1.33,5.63,1.93,3.7,1.18,7.38,2.25,11.07,3.28Q78.63,334.34,101,338.9q18.48,3.77,37.25,6.28c5.72,1.62,6,5.82,5.89,7.08v.15c-.47,5.91-1.53,19.32-2.07,25.9-8.64,5-8.52,17.2-8.45,18.85L133,447.58l6.87,9.42c0,2.92-.1,8.5-.22,15.56-.47,30.7-1.46,94.56.28,106.71a18,18,0,0,0,6.05,11.3c0,.16,0,.34,0,.5l.36,13.58,0,15.77,9,62.44,8.45,61.07a3.32,3.32,0,0,0,.38,1.27h0a4.16,4.16,0,0,0,4.43,2.21,4.34,4.34,0,0,0,2.93-1.89,4.06,4.06,0,0,0,.56-1.64l8-61.69,8.43-62,.31-15.78.24-7.63.32-5.68a3.29,3.29,0,0,1,.06-.48,18.07,18.07,0,0,0,5.94-11.18c1.73-12.15.75-76,.28-106.65-.09-5.42-.16-10-.2-13.13l8.36-14.18.74-1.26,0-1.46.65-44.47v-.53l-.09-.48c-.15-.84-.28-1.42-.44-2.11s-.32-1.32-.49-2c-.36-1.3-.75-2.58-1.19-3.87a49.92,49.92,0,0,0-2-4.84c3.09-12.26,14.19-31.2,17.8-37.19a125,125,0,0,0,19.87-4.23c7.65-2.37,15.29-5.7,22-11.07a39.3,39.3,0,0,0,8.68-9.72,36.49,36.49,0,0,0,4.8-12.23,2.74,2.74,0,0,1-.09.39c-.07.21-.06.18,0,.09l.13-.36.29-.81c.17-.54.37-1.09.5-1.65a29.3,29.3,0,0,0,.72-3.29,37,37,0,0,0,.5-6.51,50.6,50.6,0,0,0-1.74-12.49,67.52,67.52,0,0,0-4.19-11.49c-.8-1.86-1.8-3.59-2.71-5.38s-2-3.46-3-5.15a142.82,142.82,0,0,0-14.28-18.71c-5.22-5.79-10.77-11.18-16.48-16.38-.38-.35-.77-.66-1.16-1l5.26-25.64-1.75-1.53a20,20,0,0,0,1.7-1.25c8.85-7.73,13.29-23.74,15.52-38.39h46.05l5.64-27.38,45.88-.42,7.79-18.4Z" transform="translate(0 0)"/><path d="M175.78,214.83c-4.71-3.13-9.58-6-14.43-8.93-2.39-1.49-4.89-2.82-7.34-4.22l-7.4-4.15a1.65,1.65,0,0,0-1.66,2.85l0,0,7.16,4.41c2.38,1.48,4.79,2.91,7.11,4.48,4.67,3.1,9.38,6.13,13.91,9.42,9.18,6.4,18,13.28,26.53,20.48A295.46,295.46,0,0,1,224,262.07c3.76,4.07,7.49,8.18,10.91,12.48.87,1.07,1.74,2.13,2.55,3.23s1.69,2.17,2.44,3.28,1.59,2.21,2.28,3.32l1.05,1.65.89,1.59.18.32.08.13a4.4,4.4,0,0,0,7.49-4.63l-1.27-2.05c-.42-.64-.85-1.23-1.28-1.85-.85-1.26-1.76-2.36-2.64-3.54s-1.83-2.25-2.74-3.39-1.86-2.2-2.81-3.28c-3.77-4.36-7.79-8.43-11.83-12.47a301.46,301.46,0,0,0-25.77-22.36c-9-7-18.19-13.58-27.74-19.67" transform="translate(0 0)"/><path d="M178.1,460.73a3.56,3.56,0,0,0-3.55,3.6l2,87c0,.65,0,15.88.88,19.46a.52.52,0,0,0,.52.42h0c.55-.06,1.17-1,1.22-1.8,1.32-23.77,2.44-104.3,2.45-105.16a3.57,3.57,0,0,0-3.6-3.55" transform="translate(0 0)"/></g></g></g></g></g></g></svg>