<?xml version="1.0" encoding="utf-8"?>
<!-- Generator: Adobe Illustrator 24.0.2, SVG Export Plug-In . SVG Version: 6.00 Build 0)  -->
<svg version="1.1" id="Layer_1" xmlns="http://www.w3.org/2000/svg" xmlns:xlink="http://www.w3.org/1999/xlink" x="0px" y="0px"
	 viewBox="0 0 1441.6 354.3" style="enable-background:new 0 0 1441.6 354.3;" xml:space="preserve">
<style type="text/css">
	.st0{fill:#FFFFFF;}
	.st1{fill:url(#SVGID_1_);}
</style>
<g id="Layer_2_00000007413356563481904000000015539763732108712843_">
	<g id="Layer_2-2">
		<path class="st0" d="M1412.7,7.6h6.9c4.2,0,5.9,0.4,7.4,1.3c2,1.3,3.2,3.5,3.2,5.8c0,4.5-2.8,7.2-7.8,7.2c0.5,0.3,1,0.7,1.4,1.1
			c0.8,1,2.4,3,3.8,4.8l4.2,5.4h-4.9c-0.6-1.3-1.4-2.6-2.3-3.8c-1.4-2.3-3.1-4.3-5-6.1c-0.7-0.8-1.8-1.2-2.8-1.3v11.3h-4L1412.7,7.6
			z M1416.7,10.9v8.5h2.7c2.8,0,4.2-0.3,5.3-1.2c0.9-0.8,1.5-2,1.4-3.3c0-1.7-1.1-3.2-2.7-3.6c-1.2-0.3-2.4-0.5-3.6-0.4H1416.7z"/>
		<path class="st0" d="M1421.2,0c-11.5,0-20.8,9.3-20.9,20.8c0,11.5,9.3,20.8,20.8,20.9c11.5,0,20.8-9.3,20.9-20.8l0,0
			C1442,9.3,1432.7,0,1421.2,0L1421.2,0 M1421.2,38.1c-9.6,0-17.3-7.7-17.3-17.3s7.7-17.3,17.3-17.3c9.6,0,17.3,7.7,17.3,17.3l0,0
			C1438.5,30.4,1430.7,38.1,1421.2,38.1"/>
		<path class="st0" d="M195.2,141.3c0.9,7.8,2.4,19.9,11.7,23c4.5,1.4,9.3,2.1,14,2c1.1,0,1.7,0.2,1.7,1.1c0,1.3-1.9,2-4.6,2
			c-4.8,0-28.1-0.7-36.2-1.3c-5-0.4-6-1.1-6-2.2c0-0.9,0.4-1.3,1.5-1.5s1.3-3.9,0.9-7.8L168,44.8h-0.7l-53,112.5
			c-4.6,9.5-5.3,11.5-7.2,11.5c-1.5,0-2.6-2.1-6.7-10c-5.6-10.6-24.2-48-25.3-50.2c-2-3.9-26.2-55.9-28.5-61.7h-0.9L37,147.3
			c-0.2,3.4-0.2,7.4-0.2,11.1c0.1,3.3,2.4,6.1,5.6,6.7c2.7,0.6,5.5,1,8.2,1.1c0.8,0,1.8,0.4,1.8,1.1c0,1.5-1.3,2-3.9,2
			c-8,0-18.5-0.7-20.1-0.7c-2,0-12.4,0.7-18.2,0.7c-2.2,0-3.7-0.4-3.7-2c0-0.6,1.1-1.1,2.2-1.1c2.2,0,4.3-0.2,6.5-0.7
			c7.2-1.3,7.8-9.7,8.7-18L39.4,6.4c0.5-2.4,1.1-3.9,2.3-3.9c1.4,0,2.2,0.9,3.3,3.3L111.2,142L174.8,6c0.9-2,1.8-3.5,3.3-3.5
			s2.2,1.8,2.6,5.9L195.2,141.3z"/>
		<path class="st0" d="M323.1,2.5c48.7,0,85.1,30.8,85.1,81.2c0,48.5-34.2,88.6-86.4,88.6c-59.3,0-84.1-46.1-84.1-85.1
			C237.8,52.2,263.4,2.5,323.1,2.5 M327.7,164c19.5,0,59.8-11.3,59.8-74.3c0-51.9-31.6-79.8-65.8-79.8c-36.1,0-63.2,23.8-63.2,71.1
			C258.4,131.5,288.7,164,327.7,164"/>
		<path class="st0" d="M522.3,2.5c48.7,0,85.1,30.8,85.1,81.2c0,48.5-34.2,88.6-86.3,88.6c-59.3,0-84-46.1-84-85.1
			C437.1,52.2,462.6,2.5,522.3,2.5 M526.8,164c19.5,0,59.8-11.3,59.8-74.3c0-51.9-31.6-79.8-65.8-79.8c-36.1,0-63.2,23.8-63.2,71.1
			C457.6,131.5,487.9,164,526.8,164"/>
		<path class="st0" d="M665.6,139.8c0.4,17.8,2.6,23.4,8.5,25.1c3.5,0.8,7.2,1.3,10.8,1.3c1,0,1.7,0.4,1.7,1.3
			c0,1.3-1.3,1.8-3.9,1.8c-12.3,0-21-0.7-22.9-0.7s-11,0.7-20.8,0.7c-2.2,0-3.5-0.3-3.5-1.8c0-0.8,0.6-1.3,1.7-1.3
			c3,0,6-0.5,8.9-1.3c5.4-1.5,6.5-7.8,6.5-27.5l0.2-124c0-8.4,0.7-10.9,2.4-10.9s5.4,4.9,7.6,7c3.2,3.7,35.5,38.6,68.8,74.3
			c21.4,22.9,45,49.3,52,56.5l-2.4-110c-0.2-14.1-1.7-18.8-8.4-20.6c-3.5-0.7-7-1.1-10.6-1.1c-1.5,0-1.8-0.7-1.8-1.5
			c0-1.3,1.8-1.5,4.4-1.5c9.7,0,20.2,0.6,22.5,0.6s9.5-0.6,18.4-0.6c2.4,0,3.9,0.2,3.9,1.5c0,0.8-0.9,1.5-2.4,1.5
			c-1.7,0-3.5,0.2-5.2,0.6c-7.2,1.5-8,6.3-8,19.3l-0.4,126.9c0,14.3-0.5,15.4-2,15.4c-1.8,0-4.3-2.4-15.8-13.8
			c-2.4-2.2-33.5-34-56.5-58.7c-25.1-27-49.6-54.3-56.5-62.1L665.6,139.8z"/>
		<path class="st0" d="M865.8,68.3c0-33.8,0-39.9-0.4-46.8c-0.4-7.3-2.2-10.8-9.3-12.3c-2.4-0.4-4.9-0.7-7.3-0.6
			c-0.8,0-1.7-0.4-1.7-1.2c0-1.3,1.1-1.8,3.5-1.8c9.8,0,23.4,0.7,24.5,0.7c2.4,0,18.8-0.7,25.6-0.7c13.6,0,28.1,1.3,39.6,9.6
			c5.4,3.9,14.9,14.5,14.9,29.4c0,16-6.7,32-26.2,50c17.8,22.8,32.5,42,45.1,55.4c11.6,12.3,20.9,14.8,26.4,15.6
			c2.8,0.5,5.6,0.7,8.5,0.7c1.1,0,1.9,0.6,1.9,1.3c0,1.3-1.3,1.8-5.2,1.8h-15.3c-12.1,0-17.5-1.1-23.2-4.1
			c-9.3-5-16.8-15.6-29.2-31.8c-9.1-11.9-19.3-26.4-23.6-32c-0.7-0.8-1.7-1.3-2.8-1.3l-26.7-0.4c-1.1,0-1.5,0.7-1.5,1.7v5.2
			c0,20.8,0,37.8,1,46.9c0.7,6.3,2,11.1,8.5,12c3,0.4,7.8,0.9,9.7,0.9c1.3,0,1.8,0.6,1.8,1.3c0,1.1-1.1,1.8-3.4,1.8
			c-12,0-25.6-0.7-26.6-0.7c-0.3,0-13.9,0.7-20.5,0.7c-2.3,0-3.4-0.4-3.4-1.8c0-0.6,0.4-1.3,1.8-1.3c2.2-0.1,4.3-0.4,6.4-0.9
			c4.4-0.8,5.5-5.6,6.3-12c1-9.1,1-26.1,1-46.9L865.8,68.3z M883.2,87.2c-0.1,1.1,0.5,2.1,1.5,2.6c3.3,2,13.2,3.5,22.7,3.5
			c5.2,0,11.2-0.7,16.3-4.1c7.5-5.2,13.1-16.9,13.1-33.3c0-27.1-14.3-43.3-37.4-43.3c-6.5,0-12.3,0.6-14.5,1.3
			c-1.1,0.4-1.8,1.5-1.7,2.6L883.2,87.2z"/>
		<path class="st0" d="M1062.4,11c2.6-7.2,3.5-8.5,4.7-8.5s2.1,1.1,4.8,7.8c3.2,8.2,37.2,97.6,50.4,130.5
			c7.8,19.2,14.1,22.7,18.6,24c2.8,0.9,5.8,1.3,8.7,1.3c1.3,0,2.1,0.2,2.1,1.3c0,1.4-1.9,1.8-4.3,1.8c-3.3,0-19.1,0-34-0.4
			c-4.2-0.2-6.5-0.2-6.5-1.5c0-0.9,0.6-1.4,1.5-1.5c1.3-0.4,2.6-2.4,1.3-5.8l-20.1-53.3c-0.3-0.8-1.1-1.4-1.9-1.3h-46.6
			c-1.1,0-1.7,0.7-2.2,1.8l-13,38.3c-1.9,5.4-3,10.7-3,14.6c0,4.3,4.6,6.3,8.2,6.3h2.2c1.5,0,2.1,0.4,2.1,1.3c0,1.4-1.3,1.8-3.2,1.8
			c-5.2,0-14.5-0.7-16.9-0.7s-14.3,0.7-24.4,0.7c-2.8,0-4.1-0.4-4.1-1.8c0-0.8,0.9-1.3,2-1.3c1.5,0,4.5-0.3,6.2-0.4
			c10-1.3,14.3-9.5,18.2-20.4L1062.4,11z M1084.9,97.6c1,0,1-0.6,0.8-1.5l-20.5-58.5c-1.1-3.2-2.2-3.2-3.2,0L1043,96
			c-0.5,1.1,0,1.5,0.6,1.5L1084.9,97.6z"/>
		<path class="st0" d="M1197.1,113.1c0-11.7-2.1-16.4-4.9-22.8c-1.5-3.4-30.5-51.1-38.1-62.3c-5.4-8.1-10.8-13.5-14.8-16
			c-3.2-2.2-7.2-3.5-9.2-3.5c-1.1,0-2.2-0.4-2.2-1.5c0-0.8,0.9-1.5,2.8-1.5c4.1,0,20.4,0.7,21.4,0.7c1.6,0,9.8-0.7,18.2-0.7
			c2.4,0,2.8,0.7,2.8,1.5s-1.3,1.1-3.2,2c-1.7,0.8-2.8,2.1-2.8,3.8c0,2.6,1.1,5.2,2.8,8.5c3.5,6.3,36,62.1,39.8,68.4
			c4.1-9,31.6-56.5,35.9-63.6c2.8-4.5,3.7-8.2,3.7-11c0-3.1-0.9-5.4-3.5-6.1c-1.9-0.7-3.3-1.1-3.3-2.2c0-0.9,1.4-1.3,3.4-1.3
			c5.7,0,12.6,0.7,14.3,0.7c1.3,0,16.9-0.7,21-0.7c1.5,0,2.8,0.4,2.8,1.3c0,1-1.1,1.7-2.8,1.7c-3.5,0.1-7,1.1-10,3
			c-4.4,2.6-6.7,5.2-11.4,11c-7.2,8.7-37.5,59.5-41.4,68.9c-3.3,7.8-3.3,14.4-3.3,21.6v18.6c0,3.4,0,12.6,0.7,21.6
			c0.4,6.4,2.4,11.1,8.8,12c3.1,0.4,7.8,0.9,9.7,0.9c1.3,0,1.8,0.6,1.8,1.3c0,1.1-1.1,1.8-3.5,1.8c-11.9,0-25.6-0.7-26.6-0.7
			s-14.8,0.7-21.2,0.7c-2.4,0-3.5-0.4-3.5-1.8c0-0.6,0.5-1.3,1.7-1.3c2.2-0.1,4.4-0.4,6.5-0.9c4.3-0.9,6.2-5.6,6.7-12
			c0.7-9,0.7-18.2,0.7-21.6L1197.1,113.1z"/>
		<path class="st0" d="M1301.9,166.4c-3.1-1.5-3.3-2.3-3.3-8.2c0-10.8,0.9-19.4,1-22.9c0.3-2.3,0.7-3.4,1.8-3.4
			c1.3,0,1.6,0.7,1.6,2.4c-0.1,2.7,0.1,5.4,0.6,8c3.2,16,17.5,22.1,32,22.1c20.8,0,31-14.9,31-28.8c0-14.9-6.2-23.6-24.8-39l-9.8-8
			c-23-18.9-28.1-32.2-28.1-47c0-23.1,17.3-39,44.8-39c6.8-0.1,13.5,0.6,20.1,2.2c2.5,0.6,5,1,7.6,1.1c1.7,0,2.2,0.5,2.2,1.6
			s-0.8,8.2-0.8,22.9c0,3.5-0.4,5-1.6,5c-1.3,0-1.5-1.1-1.7-2.8c-0.2-2.6-1.5-8.4-2.8-10.8s-7.2-11.5-27.1-11.5
			c-14.9,0-26.6,9.3-26.6,25.1c0,12.3,6.1,19.8,26.4,36.3l6.1,4.8c25.6,20.1,31.6,33.6,31.6,50.9c0,8.9-3.4,25.3-18.4,35.9
			c-9.3,6.5-21,9.1-32.7,9.1C1320.7,172.2,1310.8,170.7,1301.9,166.4"/>
		
			<linearGradient id="SVGID_1_" gradientUnits="userSpaceOnUse" x1="0" y1="763.7" x2="1445.1" y2="763.7" gradientTransform="matrix(1 0 0 1 0 -437.2)">
			<stop  offset="0" style="stop-color:#8F4B97"/>
			<stop  offset="0.5" style="stop-color:#CD3538"/>
			<stop  offset="1" style="stop-color:#D75A33"/>
		</linearGradient>
		<rect y="298.7" class="st1" width="1445.1" height="55.6"/>
	</g>
</g>
</svg>
