<svg xmlns="http://www.w3.org/2000/svg" xmlns:xlink="http://www.w3.org/1999/xlink" viewBox="0 0 323.56 734.99"><defs><style>.cls-1{fill:none;}.cls-2{clip-path:url(#clip-path);}.cls-3{clip-path:url(#clip-path-2);}.cls-4{opacity:0.6;}.cls-5{clip-path:url(#clip-path-3);}</style><clipPath id="clip-path" transform="translate(0 0)"><rect class="cls-1" width="323.56" height="734.99"/></clipPath><clipPath id="clip-path-2" transform="translate(0 0)"><rect class="cls-1" width="323.56" height="735"/></clipPath><clipPath id="clip-path-3" transform="translate(0 0)"><rect class="cls-1" x="-71.91" y="-55.93" width="467.39" height="798.92"/></clipPath></defs><g id="Layer_2" data-name="Layer 2"><g id="Layer_1-2" data-name="Layer 1"><g class="cls-2"><g class="cls-3"><g class="cls-4"><g class="cls-5"><path d="M311.86,77.84H11.69V69.69s.89-1.78,6-3.38c3.59-1.14,20.89-6,30.76-8.75l164.63-2.79a.84.84,0,0,0,0-1.67L60.74,50.48c.14-.24.26-.59.39-.83,1-3,2.2-4.75,6-5.89S132.38,25.4,132.38,25.4s1.07-.13,2.26-3.46,3.22-9,3.22-9,.24-1.9,5-1.9h37.8c4.77,0,5,1.9,5,1.9s1.76,4.76,2.89,8.14L155,22.18a1,1,0,0,0-1,1,.94.94,0,0,0,1,1l36.16,1.2c1.19.29,61.38,17.24,65.22,18.36s5,2.86,6,5.89,5.73,6,5.73,6,32.51,9.16,37.72,10.71,6,3.38,6,3.38Zm-92.51,45.79A63.08,63.08,0,0,0,217,113.16c-.58-1.78-1.46-3.51-2.08-5.29-.94-1.66-1.7-3.39-2.76-5a46,46,0,0,0-7.3-9,50.21,50.21,0,0,0-6.23-5.06h31.5Zm-13.21,3.27a1.21,1.21,0,0,0,.89-1.49,53.06,53.06,0,0,0-9.75-17.18c-1.07-1.32-2.26-2.5-3.46-3.75l-1.88-1.79-1-.83-1-.77a45.35,45.35,0,0,0-8.49-5.23l.13-5.83c.07,0,.12,0,.19.12a43,43,0,0,1,16.73,9.69,34.61,34.61,0,0,1,6,7.31c.88,1.32,1.51,2.8,2.27,4.16.56,1.5,1.31,2.86,1.75,4.41a58.7,58.7,0,0,1,2.83,16.65h-.63l-10.5.3-19.18.42.07-.42v-6.49l.18-12.9.13-9.1a34.23,34.23,0,0,1,4.52,2.2l1,.53.93.66,1.9,1.25c1.19,1,2.45,1.85,3.58,2.85a54,54,0,0,1,6.28,6.73,48.24,48.24,0,0,1,5,7.78v.07a1.26,1.26,0,0,0,1.5.65m-2.32,48.82L190,222.16c-4.27,14.45-8.55,28.78-12.7,43.24a8.42,8.42,0,0,1-.94,1c-17.17,6.48-28.62-.36-29.12-.72l-.13.24a5.77,5.77,0,0,1-.81-.83c-4-14.58-8.11-29.14-12.27-43.72l-13.21-46L110.55,139.5c1.45,0,2.84.07,4.22.12l10.19.3,20.26.48a.23.23,0,0,0,.18,0h.5a8.42,8.42,0,0,0,1.06,0,7.42,7.42,0,0,0,2.21-.66,6,6,0,0,0,3.33-3.62c.13-.36.19-.65.32-1s.06-.6.06-.84.06-.6.06-.72v-.41l-.06-1.54-.06-6.25L152.63,113l-.19-12.9V100l-.07-2.2-.12-9H172.5l-.32,24.38-.18,13-.07,6.49v3.38c.07.36.2.66.25,1a7.6,7.6,0,0,0,.45,1.07,2.74,2.74,0,0,0,.75,1.07,6,6,0,0,0,2,1.66,11.92,11.92,0,0,0,2.14.78l1,.11h.88l21-.53,10.5-.3c1.07,0,2.19-.06,3.21-.06-3.47,11.6-6.86,23.25-10.32,34.85m-28,167.69-.2,37.41-.06,18.68-.06,9.32c.06,3.09.19,6.19.12,9.34s-.19,6.19-.19,9.28l-.06,9.33-.13,18.68L175,492.79l-1.19,108.35-8.06,64.22L161.68,696l-4.21-30-8.68-64.05-.25-109.12-.18-37.34c-.14-12.43-.08-24.86-.32-37.29.13-12.49-.06-25-.06-37.34l-.19-37.41-.44-68.74a42.4,42.4,0,0,0,14.58,2.56A47.17,47.17,0,0,0,176.22,275ZM120.93,126.84a1.24,1.24,0,0,0,1.64-.59l.06-.07a47.13,47.13,0,0,1,5-7.78,55.34,55.34,0,0,1,6.35-6.73c1.07-1,2.32-1.9,3.52-2.85.63-.41,1.32-.83,1.95-1.25l1-.66,1-.53a19.71,19.71,0,0,1,2-1.07l.13,7.79.12,12.37.07,6.19v.05l-18.49-.41L115,131.06c-.88-.07-1.76-.07-2.71-.12a59.75,59.75,0,0,1,2.77-15.22c.44-1.55,1.2-2.91,1.77-4.41.75-1.36,1.45-2.84,2.26-4.16a34,34,0,0,1,6-7.31,43.78,43.78,0,0,1,16.73-9.69,13.45,13.45,0,0,1,1.38-.42l.12,7.43a40.42,40.42,0,0,0-6,3.93l-1.08.77-.94.83c-.62.6-1.32,1.19-1.88,1.79-1.2,1.25-2.46,2.43-3.52,3.75a52.6,52.6,0,0,0-5.67,8.2,49.45,49.45,0,0,0-4,9,1.22,1.22,0,0,0,.69,1.43m-12.26-19c-.63,1.78-1.51,3.51-2.07,5.29-.7,2.14-1.2,4.28-1.7,6.48l-8.8-30.8H125a42.82,42.82,0,0,0-6.22,5.06,43.65,43.65,0,0,0-7.3,9c-1.08,1.6-1.83,3.33-2.77,5M322.43,65c-1.38-2.78-4.79-6.66-12.95-9.22-4.53-1.3-28.5-8-35.85-10.1a1,1,0,0,1-.38-.36c-1.63-4.22-4.84-9.64-13.46-12.13-3.27-1-46.16-13-60.62-17.07C198,13,196.78,9.39,196.78,9.39a13.2,13.2,0,0,0-4.84-6.24C189.36,1.25,185.71,0,180.68,0h-37.8c-10.07,0-14.59,5.17-16.1,9.39,0,0-1.26,3.57-2.39,6.72C109.92,20.16,67,32.23,63.77,33.18,55.16,35.67,52,41.09,50.31,45.31a1,1,0,0,1-.38.36c-7.36,2.07-31.31,8.8-35.85,10.1C5.91,58.33,2.51,62.21,1.13,65L0,67.25V88.84H84l25.53,89.38,13.2,46c4.22,14.87,8.5,29.74,13,44.6h-.06l.44,74.69.18,37.29c.07,12.49.07,24.92.32,37.41-.12,12.36.07,24.85.07,37.28l.18,37.34.44,74.7c-.06,1.6-.06,10.28-.06,18.49s-.06,16.05-.06,16.05l10,65.06,9.43,63.69a5.2,5.2,0,0,0,.44,1.42,6.53,6.53,0,0,0,1.64,1.79h.06l3.52.94a1.3,1.3,0,0,1,.44-.06,5.47,5.47,0,0,0,3.84-2.26,4.22,4.22,0,0,0,.69-2l8.87-64.16,7.23-49.71,2.2-17,.32-14.33.25-8s.19-10.29.19-10.35l.44-74.27.19-37.34.06-18.62.07-9.33c0-3.16-.13-6.31-.13-9.33s.18-6.25.18-9.41l.13-9.32.06-18.68.19-37.29.44-73.79c4.53-14.81,8.93-29.68,13.33-44.54l13.84-46.5c4.59-15.47,9.12-31,13.83-46.45l13.34-43.41h81.31V67.25Z" transform="translate(0 0)"/></g></g></g></g></g></g></svg>