<svg xmlns="http://www.w3.org/2000/svg" xmlns:xlink="http://www.w3.org/1999/xlink" viewBox="0 0 243.45 751.49"><defs><style>.cls-1{fill:none;}.cls-2{clip-path:url(#clip-path);}.cls-3{clip-path:url(#clip-path-2);}.cls-4{opacity:0.6;}.cls-5{clip-path:url(#clip-path-3);}</style><clipPath id="clip-path" transform="translate(0 0)"><rect class="cls-1" width="243.45" height="751.49"/></clipPath><clipPath id="clip-path-2" transform="translate(0 0)"><rect class="cls-1" width="243.45" height="751.49"/></clipPath><clipPath id="clip-path-3" transform="translate(0 0)"><rect class="cls-1" x="-73.53" y="-57.19" width="390.5" height="816.85"/></clipPath></defs><g id="Layer_2" data-name="Layer 2"><g id="Layer_1-2" data-name="Layer 1"><g class="cls-2"><g class="cls-3"><g class="cls-4"><g class="cls-5"><path d="M70.17,22.08l0,0,0,0s0,0,0,0M232.59,78.49c-.09.58-.22,1.17-.34,1.66l-.09.31a.51.51,0,0,0,0,.09l-.4.84c-1.37,3.18-4.77,6.28-10.11,9.19a77.79,77.79,0,0,1-15.13,6c-4.7,1.39-9.92,2.64-16.41,3.93a326.35,326.35,0,0,1-34,4.52c-11.86,1-23.43,1.55-34.35,1.64-10.95-.1-22.51-.68-34.37-1.68a327.24,327.24,0,0,1-34-4.56c-6.52-1.3-11.74-2.56-16.43-4a78.78,78.78,0,0,1-15.13-6c-5.43-3-8.74-6-10.15-9.29l-.38-.76-.09-.34c-.13-.54-.27-1.12-.36-1.73a25.84,25.84,0,0,1-.35-3.56,12.39,12.39,0,0,1,1.1-6l.06-.13a3.45,3.45,0,0,1,.34-.55l.29-.43.63-.8a23,23,0,0,0,3,6.64,33.57,33.57,0,0,0,10.46,9.69c8,4.79,16.67,7.38,25.33,9.38,17.41,3.81,35.05,5,52.62,5.46A489.72,489.72,0,0,0,157,96.7c8.76-.73,17.5-1.75,26.17-3.26a175.3,175.3,0,0,0,25.64-6.27.92.92,0,0,0-.57-1.75,173.37,173.37,0,0,1-25.45,5.68c-8.61,1.32-17.3,2.16-26,2.72a488.5,488.5,0,0,1-52.33.36c-17.39-.81-34.85-2.35-51.61-6.37-8.32-2.08-16.57-4.79-23.55-9.2a27.63,27.63,0,0,1-8.55-8.16A17.46,17.46,0,0,1,18.1,60.3l3.56-4.56L32.42,42c3.49-4.37,7.23-9,10.93-13.45,2.14-2.54,3.9-4.55,5.53-6.29L50.19,21l0,0,.29-.23.33-.17c1-.45,2.18-.92,3.71-1.49a159.62,159.62,0,0,1,29.11-7.13c-3.22,1.28-6.39,2.66-9.61,4-1,.43-2.07.89-3.1,1.37A23.9,23.9,0,0,0,67.81,19a2.61,2.61,0,0,0-.31.25l-.13.13a1.17,1.17,0,0,0-.21.24l-.13.21a1.8,1.8,0,0,0-.24.67,1.93,1.93,0,0,0,.15,1.12,2.08,2.08,0,0,0,1.1,1,2,2,0,0,0,.75.14h.36l.85.05,1.66.07L75,23l26.73.51c8.91.16,17.82.14,26.74.22s17.83,0,26.76-.15c-8.9-.7-17.81-1.33-26.72-1.84s-17.82-1.08-26.74-1.48L75,19.08h-.46l.89-.62c3.36-2.36,6.86-4.5,10.25-6.84.63-.1,1.2-.21,1.84-.3A260.3,260.3,0,0,1,121.73,9a258,258,0,0,1,34.17,2.38,165.27,165.27,0,0,1,32.94,7.84c1.11.43,2,.79,2.82,1.13h0a37.18,37.18,0,0,1-8,2.52,167,167,0,0,1-18,2.66c-10.81,1.07-22.54,1.74-37,2.1-6.08.22-12.21,0-18.48-.17s-12.64-.5-18.53-.86c-7.48-.47-13.17-.95-18.44-1.54s-12-1.4-17.93-3.2a2.17,2.17,0,0,0-2.55,3.08A2.11,2.11,0,0,0,54.05,26c6.24,1.95,12.56,2.77,18.67,3.56,5.38.66,11.13,1.2,18.66,1.75,13.79.95,26,1.47,37.37,1.61l6.91,0c11.53,0,21.24-.28,30.55-.88a171.2,171.2,0,0,0,18.89-2.15,43.25,43.25,0,0,0,9.81-2.8,15.71,15.71,0,0,0,2.52-1.46c.84,1,1.7,2,2.65,3.1,3.77,4.49,7.47,9.11,10.91,13.44l20.13,25.68c.1.16.21.3.31.44a5.26,5.26,0,0,1,.36.58l.05.12a12.42,12.42,0,0,1,1.09,5.92,26.08,26.08,0,0,1-.34,3.59m-48.51,45.75a145.7,145.7,0,0,0-5,22.41c-1.07,7.34-1.79,14.4-2.56,22.22l-1,11c-.06.56-.1,1.13-.15,1.7l0,.42c-.09,1.15-.18,2.23-.33,3.25l-.08.7a37.42,37.42,0,0,1-.7,4.24,58.8,58.8,0,0,1-2.82,9.42,72.28,72.28,0,0,1-4.49,9.12,92.12,92.12,0,0,1-12.36,16.52c-2.42,2.62-4.92,5.09-7.46,7.36-1.08,1-2.23,2-3.35,2.91l-.53.44-.69.53-.11.09c-.34.25-.67.51-.9.67l-.87.54a33.62,33.62,0,0,0-7.36-6,25.08,25.08,0,0,0-13.56-3.61,25.67,25.67,0,0,0-13.31,4.35,33.22,33.22,0,0,0-5.09,4.18,1.33,1.33,0,0,0-.19-.14l-.14-.11c-.36-.27-.72-.53-1.08-.83-1.24-1-2.66-2.22-4-3.43a103.21,103.21,0,0,1-7.42-7.34,91,91,0,0,1-12.27-16.58,60.66,60.66,0,0,1-7.19-18.74,24.75,24.75,0,0,1-.52-3.23l0-.25c0-.46-.11-.91-.17-1.3-.12-1.09-.22-2.26-.32-3.43l0-.42c0-.52-.09-1-.13-1.54l-1-11c-.69-7.17-1.4-14.59-2.47-22.2a136.27,136.27,0,0,0-5-22.45c-1.2-3.81-2.49-7.55-3.75-11.23,9.56,1.74,19.62,3.11,30.66,4.12,12.39,1.13,24,1.76,35.39,1.94h0c11.43-.17,23-.79,35.36-1.89,3.45-.31,6.79-.66,10-1-1,4.62-1.87,8.43-2.68,11.86-3.07,13-5.1,21.52-8.16,57.12h0v0c-.4,7.9-3.36,15.86-7.54,23.08a78.52,78.52,0,0,1-16.2,19.55.62.62,0,0,0-.08.84.65.65,0,0,0,.9.12,81.48,81.48,0,0,0,18.47-18.64c5-7.19,9.09-15.33,10.43-24.43a2.28,2.28,0,0,0,0-.26v0c3-35,5-43.42,8-56.11.93-3.94,2-8.3,3.14-13.95,5-.66,9.8-1.45,14.52-2.3-1.32,3.85-2.66,7.78-3.91,11.79M125.34,688.08,121.88,716l-3.63-27.34-7.38-58.37.41-14.71.11-7.56v-.1a36.39,36.39,0,0,0,10.29,1.13c.54,0,1.12.05,1.73.05a35.89,35.89,0,0,0,8.73-1.1l-.1,7.2.17,14.4Zm-3.81-445.2h-.06a37.29,37.29,0,0,1-17.75-4.64l-.49-.31a43.37,43.37,0,0,1,4.69-2.91,27.07,27.07,0,0,1,11.92-3.18,21.91,21.91,0,0,1,6.08.67,28.34,28.34,0,0,1,5.89,2.09,49.34,49.34,0,0,1,7,4.2,38,38,0,0,1-17.32,4.08M105.52,590c-1.5-10.45-.69-219.48,0-337.2,1.15.39,2.25.84,3.45,1.16a50.81,50.81,0,0,0,12.57,1.72,51.88,51.88,0,0,0,16.4-2.79c.69,117.7,1.5,326.78,0,337.25-1.25,8.78-15.44,8.12-16.05,8.08h-.07l-.36,0c-.6,0-14.67.59-15.93-8.23M241,64.15a14.49,14.49,0,0,0-1.47-2.29l-9.87-12.29-11-13.6c-3.57-4.34-7.41-9-11.3-13.48-2.32-2.68-4.19-4.74-6.11-6.73l-1.74-1.67-.09-.09c-.4-.32-.91-.69-1.5-1.08a5.35,5.35,0,0,0-1.15-.62l-.33-.16c-1.58-.71-3.09-1.28-4.37-1.75C182,6.77,170.93,4.19,157.16,2.26A264.72,264.72,0,0,0,122.35,0h-1.27A268.16,268.16,0,0,0,86.29,2.23c-13.78,1.9-24.88,4.46-34.95,8-1.26.47-2.77,1-4.39,1.76l-.48.22a4.66,4.66,0,0,0-1,.54c-.65.44-1.15.81-1.61,1.19l-1.78,1.71c-2.35,2.44-4.47,4.86-6,6.69-3.91,4.52-7.74,9.15-11.3,13.49l-11,13.58-9.62,12-.26.36A14.84,14.84,0,0,0,2.44,64,23.17,23.17,0,0,0,0,74.92,36.4,36.4,0,0,0,.41,80c.11.76.26,1.55.5,2.63l.23.85a5.07,5.07,0,0,0,.31.84l.49,1.11a25.4,25.4,0,0,0,6.54,8.89l.68.58a27,27,0,0,0,3.26,2.52l2,1.35L16.54,100a89.61,89.61,0,0,0,17.15,7.15c2.88.9,5.87,1.72,8.92,2.5.48,1.5,1,3,1.46,4.53,1.38,4.24,2.81,8.63,4.09,12.9a122.74,122.74,0,0,1,4.25,20.66c1,7.2,1.65,14.65,2.28,21.66l1.09,12.92c.09,1.19.19,2.39.34,3.71.06.49.12,1,.18,1.57A40.55,40.55,0,0,0,57,192a72.85,72.85,0,0,0,8.45,22.41,102.9,102.9,0,0,0,13.82,18.91,115.4,115.4,0,0,0,8.2,8.21c1.46,1.35,3,2.63,4.39,3.84.53.43,1.12.88,1.78,1.37l.8.6c.1.08.2.13.3.2-.25,42.64-1.85,330.51.08,344a17.55,17.55,0,0,0,5.73,10.77c0,.12,0,.24,0,.35l.35,12.87,0,14.94,8.52,59.28,8,58a3.69,3.69,0,0,0,.4,1.31,4.39,4.39,0,0,0,1.37,1.61l.07,0a5.82,5.82,0,0,0,3.4.78,4.32,4.32,0,0,0,3.21-2.06,4.52,4.52,0,0,0,.62-1.81l7.56-58.48,8-58.8.3-15,.23-7.23.31-5.4a1.11,1.11,0,0,1,0-.23,17.62,17.62,0,0,0,5.65-10.76c1.93-13.5.33-301.31.09-344,.57-.4,1.13-.83,1.72-1.29l1.49-1.2c1.22-1,2.49-2.12,3.67-3.22,2.8-2.53,5.57-5.28,8.23-8.21A103.51,103.51,0,0,0,177.74,215,85.45,85.45,0,0,0,183,204.16a69.45,69.45,0,0,0,3.38-11.49,52.09,52.09,0,0,0,.88-5.63l.05-.43c.17-1.32.27-2.55.36-3.73v-.22c0-.56.09-1.12.15-1.7l.94-11c.75-8.11,1.45-14.9,2.37-21.67a132.91,132.91,0,0,1,4.24-20.71c1.21-4.11,2.58-8.34,4-12.54.58-1.79,1.15-3.58,1.73-5.37,3-.76,5.91-1.57,8.75-2.46a89.23,89.23,0,0,0,17.16-7.13L229,99l2-1.36a30.22,30.22,0,0,0,3.29-2.53l.79-.68a25,25,0,0,0,6.44-8.77l.47-1.11a5.08,5.08,0,0,0,.34-.9l.23-.92c.23-1,.39-1.79.49-2.55a35.84,35.84,0,0,0,.41-5.14A22.65,22.65,0,0,0,241,64.15" transform="translate(0 0)"/></g></g></g></g></g></g></svg>