<svg xmlns="http://www.w3.org/2000/svg" xmlns:xlink="http://www.w3.org/1999/xlink" viewBox="0 0 525.12 356.95"><defs><style>.cls-1{fill:none;}.cls-2{clip-path:url(#clip-path);}.cls-3{clip-path:url(#clip-path-2);}.cls-4{opacity:0.6;}.cls-5{clip-path:url(#clip-path-3);}</style><clipPath id="clip-path" transform="translate(0 0)"><rect class="cls-1" width="525.12" height="356.95"/></clipPath><clipPath id="clip-path-2" transform="translate(0 0)"><rect class="cls-1" width="525.12" height="356.95"/></clipPath><clipPath id="clip-path-3" transform="translate(0 0)"><rect class="cls-1" x="-116.77" y="-89.29" width="758.65" height="453.11"/></clipPath></defs><g id="Layer_2" data-name="Layer 2"><g id="Layer_1-2" data-name="Layer 1"><g class="cls-2"><g class="cls-3"><g class="cls-4"><g class="cls-5"><path d="M516.78,112.78,233.92,152.55,8.33,112.32V100.39L207.42,127.2a1.92,1.92,0,0,0,.57-3.8L18.55,91.67C43.3,81,145.39,38.23,146.54,37.75l.19-.08,4.08.58,6.33.83,12.64,1.67q12.66,1.61,25.31,3.12c8.44,1,16.89,2,25.33,2.94l25.35,2.79.46,0,.35,0L258.9,48c4.11-.59,8.22-1.14,12.33-1.79s8.2-1.28,12.29-2,8.19-1.41,12.27-2.23a1.36,1.36,0,0,0-.3-2.7c-4.17.1-8.31.32-12.46.53s-8.29.49-12.43.8-8.27.66-12.41,1l-11.92,1.08-25-3.28c-8.43-1.06-16.86-2.17-25.3-3.17s-16.88-2-25.32-3L158,31.8l-5-.55a58.41,58.41,0,0,1,30-15.09C206,12.33,256,8.71,260.77,8.37l74,7.82.1,0c.22,0,21.54,1.94,35,18.18l.66.79L501.83,89.8l-18.94,2.76L453.15,97l-59.46,9-59.44,9.13-29.72,4.62-29.7,4.7a1.93,1.93,0,0,0-1.6,2.12,1.9,1.9,0,0,0,2.12,1.68l29.87-3.52,29.85-3.61,59.69-7.33,59.66-7.51,29.83-3.81,29.81-3.87.09,0a5.51,5.51,0,0,0,1.43-.42,6,6,0,0,1,1.2,3.43ZM411.13,223.1,245.76,253.94l-130.57-31.6c-14.14-43-36.45-76.62-46.79-90.83L231.57,160.6c.19.57.39,1.14.57,1.71l.69,2.22.63,2.25c.42,1.5.79,3,1.18,4.54s.72,3.05,1,4.59c1.32,6.16,2.34,12.41,3.18,18.68s1.46,12.6,2,18.92l.64,9.52.42,9.54v.05a2.57,2.57,0,0,0,5.13-.18l-.21-9.64-.41-9.65c-.4-6.43-.85-12.87-1.59-19.3S243.26,181,242,174.63c-.29-1.6-.64-3.19-1-4.79s-.71-3.19-1.11-4.77l-.62-2.39-.67-2.39L461,129c-30,33.45-46.28,82.36-49.88,94.06m46.23,15.84v.89L255.07,277.25a2.81,2.81,0,0,0,1,5.53l205.09-34.47.08,0a4.39,4.39,0,0,0,2.25-1.13c9.2.93,12.83,2.29,14.16,3v45.17l-238.34,53L51.77,291.41V249.26c1-.61,3.63-1.8,9.69-3.16h0a4.25,4.25,0,0,0,1.19.45l155.21,33.71a2.4,2.4,0,0,0,1.09-4.67L69.07,238.82v-1.77l42.72-7,129.87,31.42-6.13,17.11-.24.69,0,.62L237.1,333a2.44,2.44,0,0,0,4.87,0l1-52.33,6.58-18.36q.09-.28.15-.57L414.4,231h0ZM510.23,84.26l-134.63-56C360.13,10.35,337.18,8,335.6,7.9L260.92,0l-.37,0c-2.21.15-54.5,3.85-78.85,7.91a66.45,66.45,0,0,0-39.39,22.55C129.54,35.84,16.25,83.32,9.82,86.42a17.38,17.38,0,0,0-4.54,3.12,5.2,5.2,0,0,0-5,4.51A5.26,5.26,0,0,0,.65,96.9,13.22,13.22,0,0,0,0,99.42L0,119.3l56.31,10a.76.76,0,0,0,.08.11c.32.4,31.9,39.6,50.07,93.07L60.74,230v7.78c-13.07,2.78-16,5.75-17,8.32a5.41,5.41,0,0,0-.3,3.15v48.37L239,357l247-55V251a5.83,5.83,0,0,0-.27-4.09c-1.29-2.94-4.74-6.14-20-7.85v-7l-45.93-8.53C424.7,208.25,443,157,474.34,127.26l.1-.11,47.09-6.62,3.59-.51V101.53c0-11.18-13.63-16.77-14.89-17.27" transform="translate(0 0)"/><path d="M305,19.74a1.32,1.32,0,0,0-1.34-1.28c-4.36.11-8.71.4-13.07.66s-8.68.61-13,1-8.67.8-13,1.25-8.44.92-12.65,1.42c-3.23-.41-6.46-.81-9.71-1.17s-6.73-.71-10.09-1-6.76-.53-10.14-.76-6.77-.38-10.18-.4a.6.6,0,0,0-.16,1.17c3.29.9,6.6,1.63,9.91,2.37s6.63,1.39,10,2,6.65,1.21,10,1.76,6.67,1.07,10,1.57l.32,0,.38,0q6.48-.69,13-1.46c4.33-.51,8.64-1.06,13-1.65s8.61-1.25,12.92-1.91,8.6-1.4,12.88-2.27A1.31,1.31,0,0,0,305,19.74" transform="translate(0 0)"/><path d="M122.22,191.83c-2.19-5.62-4.57-11.15-7-16.63s-5-10.93-7.66-16.33c-1.32-2.71-2.66-5.39-4-8.08l-2.08-4-1.07-2-.56-1a6.6,6.6,0,0,0-.34-.59l-.37-.62-.09-.15a3.82,3.82,0,1,0-6.36,4.23l.19.29.22.33c.07.11.14.2.24.38l.57.91L95,150.39l2.28,3.82q2.25,3.84,4.45,7.72,4.4,7.75,8.53,15.66c2.74,5.26,5.42,10.57,7.9,16S123,204.38,125,209.94v0a1.65,1.65,0,0,0,2,1,1.67,1.67,0,0,0,1.14-2.06c-1.69-5.82-3.75-11.49-5.93-17.1" transform="translate(0 0)"/></g></g></g></g></g></g></svg>