<svg xmlns="http://www.w3.org/2000/svg" xmlns:xlink="http://www.w3.org/1999/xlink" viewBox="0 0 403.77 747.5"><defs><style>.cls-1{fill:none;}.cls-2{clip-path:url(#clip-path);}.cls-3{clip-path:url(#clip-path-2);}.cls-4{opacity:0.6;}.cls-5{clip-path:url(#clip-path-3);}</style><clipPath id="clip-path" transform="translate(0 0)"><rect class="cls-1" width="403.77" height="747.49"/></clipPath><clipPath id="clip-path-2" transform="translate(0 0)"><rect class="cls-1" width="403.77" height="747.5"/></clipPath><clipPath id="clip-path-3" transform="translate(0 0)"><rect class="cls-1" x="-138.14" y="-105.64" width="680.06" height="861.26"/></clipPath></defs><g id="Layer_2" data-name="Layer 2"><g id="Layer_1-2" data-name="Layer 1"><g class="cls-2"><g class="cls-3"><g class="cls-4"><g class="cls-5"><path d="M128.43,153.81a271.81,271.81,0,0,0-39.77-2.73h0A269,269,0,0,0,47.87,154a77.19,77.19,0,1,1,80.56-.15m-4.18,11.93a5.38,5.38,0,0,0-2.06,3.17A123,123,0,0,0,106,166.4l-2.15-.22-2.14-.12-4.29-.24c-2.87-.07-5.73-.16-8.6-.11-5.73.07-11.45.34-17.15.95a134.16,134.16,0,0,0-16.4,2.6,5.36,5.36,0,0,0-2.22-3.51c0-.58,0-1.11,0-1.6a272.52,272.52,0,0,1,35.6-2.26h0a272.24,272.24,0,0,1,35.6,2.26c0,.48,0,1,0,1.59m-2.33,4.92c-.11,3.56-9.86,15.57-21.49,26.68a29.83,29.83,0,0,0-11.79-2,29.76,29.76,0,0,0-11.78,2c-11.63-11.11-21.37-23.12-21.49-26.66H55.3c0-.23,0-.46,0-.68,11.2-.66,22.36-1.1,33.52-1.06,5.65,0,11.31.13,17,.37,5.42.17,10.8.63,16.23,1,0,.12,0,.24,0,.37Zm2.49,190L124,373.69h-.13a58,58,0,0,0-19.51-9.81,63,63,0,0,0-22.16-2.23,60.44,60.44,0,0,0-21.51,5.91,59.46,59.46,0,0,0-6.55,3.7l-1.06,0,.45-13.09Zm8.27,33.69a46.54,46.54,0,0,1,4.09,19.4,72.7,72.7,0,0,1-1.56,14.7c-.28.49-.57,1-.88,1.46a39.47,39.47,0,0,1-3.05,4.06,47.17,47.17,0,0,1-7.47,7.06,55,55,0,0,1-18.56,9.1,68.64,68.64,0,0,1-10.3,2,79.25,79.25,0,0,1-10.57.45,105.18,105.18,0,0,1-21.12-2.73,1.28,1.28,0,0,0-.61,2.48,107.56,107.56,0,0,0,21.61,3.51,81.37,81.37,0,0,0,11-.1,74.39,74.39,0,0,0,11-1.74,59.51,59.51,0,0,0,20.34-9.18c1.36-1,2.68-2,4-3.12a45.77,45.77,0,0,1-6.16,9.18,42.64,42.64,0,0,1-15.48,11.3,53.68,53.68,0,0,1-19,4.19c-13.37.58-27.47-1.58-37.56-9.34a37.25,37.25,0,0,1-11.5-15.1,63.63,63.63,0,0,1-4.55-19.53A77.39,77.39,0,0,1,36,412.18a43.72,43.72,0,0,1,1.66-9.76A46.92,46.92,0,0,1,47.22,385a53.33,53.33,0,0,1,15.92-12.42,54.36,54.36,0,0,1,19.5-5.7,48.23,48.23,0,0,1,5.1-.23c1.7.09,3.41.09,5.11.26s3.41.38,5.07.73l2.5.57a21.38,21.38,0,0,1,2.47.65,49.68,49.68,0,0,1,17.77,9.58,45.56,45.56,0,0,1,12,15.89M96.93,620.19c-.31,4.3-1.46,7.41-3.31,9a5.64,5.64,0,0,1-3.75,1.34l-.38-.14-.86.14c-1.61.07-6.46-.52-7.17-10.5-.46-6.33-.57-69-.52-144.09a73.5,73.5,0,0,0,9.4.11,68,68,0,0,0,7.1-.7c0,75.39,0,138.49-.51,144.84m-4.57,69.34-1.9,18L89.24,718.3c-.41-3.31-.81-6.63-1.22-9.93q-2.14-17.76-3.91-35.57l.49-20,.23-10.12,0-1.77a16.92,16.92,0,0,0,4.3.43l.78,0a16.7,16.7,0,0,0,3.59-.41l0,1.47.14,9.89L94,671.91c-.5,5.88-1.1,11.75-1.66,17.62m4.57-481.91c.06,18.84.22,77.26.35,144.47l-16.17-.57c.13-67.38.29-125.86.34-144.36a19.83,19.83,0,0,1,7.1-1l.1-1.34.09,1.34a18.7,18.7,0,0,1,8.19,1.45M176,88A88,88,0,1,0,42.23,163.19c0,1.68,0,3.83.1,6.42v.13a6.14,6.14,0,0,0,2.22,4.93,6.56,6.56,0,0,0,1,.62c3.72,10.06,17.37,23.81,25.11,31.06,0,18.21-.22,77-.35,144.79l-16.53-.58A7.56,7.56,0,0,0,46,357.85L45.48,371a7.53,7.53,0,0,0,2,5.3,59.8,59.8,0,0,0-4.79,4.63,53.21,53.21,0,0,0-11.55,19.49,51.38,51.38,0,0,0-2.33,11.25,82.94,82.94,0,0,0-.11,11.24,71.28,71.28,0,0,0,4.41,22.2,47.94,47.94,0,0,0,5.51,10.35,42.85,42.85,0,0,0,8.13,8.67,52.19,52.19,0,0,0,21.07,10c.78.18,1.56.34,2.35.5,0,75.9.07,139.63.55,146.27a27.32,27.32,0,0,0,3.4,12.05c0,.19,0,.37,0,.55l0,.2c0,.1,0,.32,0,.49l.07,1.16.11,2.46.17,5c.1,3.35.16,6.7.22,10.06q.21,10.07.27,20.15v.43l0,.22q3.12,17.79,5.79,35.65c.87,6,1.81,11.9,2.63,17.87L84.73,736l.63,4.47.32,2.23.15,1.12,0,.28a3.69,3.69,0,0,0,.48,1.58,4.29,4.29,0,0,0,.28.42,3.34,3.34,0,0,0,.43.47,3.41,3.41,0,0,0,4,.47,3.53,3.53,0,0,0,.69-.49,3.4,3.4,0,0,0,.43-.47,3.46,3.46,0,0,0,.45-.78,4.12,4.12,0,0,0,.19-.56,4.17,4.17,0,0,0,.1-.64l2.34-17.9,2.47-17.89,2.63-17.87c.93-6,1.83-11.9,2.82-17.83l0-.18v-.41c.1-6.56.23-13.14.4-19.7l.29-9.83.2-4.87.12-2.4c0-.68.15-1.79.11-1.57a5,5,0,0,0,.07-.77A27.26,27.26,0,0,0,107.71,621c.48-6.69.6-71.5.55-148.31a48.63,48.63,0,0,0,4.58-1.84,51.22,51.22,0,0,0,18.37-14.34,56.88,56.88,0,0,0,10.28-20.55A76.17,76.17,0,0,0,144,413.57a53.33,53.33,0,0,0-5.45-22.06,51.29,51.29,0,0,0-9-12.71,7.46,7.46,0,0,0,2-4.83l.46-13.1a7.54,7.54,0,0,0-2-5.42,7.63,7.63,0,0,0-5.27-2.4l-16.59-.58c-.14-69.87-.31-130.35-.36-147.14,7.89-7.49,20.51-20.49,24-30.09a5.76,5.76,0,0,0,3.17-5.49v-.14c.11-3,.12-5.42.1-7.19A88.08,88.08,0,0,0,176,88" transform="translate(0 0)"/><path d="M90.14,24a4.32,4.32,0,0,0-3.22-.79c-1.19.19-2.19.39-3.3.65s-2.09.48-3.12.78c-2,.52-4,1.17-6.08,1.9A87.41,87.41,0,0,0,62.8,31.65,74.73,74.73,0,0,0,42.71,47,67,67,0,0,0,29.57,68.52a82.14,82.14,0,0,0-4.85,24.39,2,2,0,0,0,1.78,2h.19a2,2,0,0,0,2-1.78A77.75,77.75,0,0,1,34.3,70.45a65.47,65.47,0,0,1,5.6-10.17,61.69,61.69,0,0,1,7.36-8.89A68.12,68.12,0,0,1,66.15,38.33a79.79,79.79,0,0,1,10.78-4.11c1.89-.58,3.77-1.06,5.57-1.45.93-.22,1.87-.4,2.8-.56s1.94-.31,2.66-.39l.28,0a4.34,4.34,0,0,0,2.83-1.72A4.35,4.35,0,0,0,90.14,24" transform="translate(0 0)"/><path d="M123.36,395.63l-4.08,34.11h-57a1,1,0,0,0-.07,2L122,436.23l3.23.24.13-3.23,1.52-37.33a1.79,1.79,0,0,0-3.56-.28" transform="translate(0 0)"/><path d="M110.53,387.65a1.81,1.81,0,0,0-1.75-1.88l-53.81-2-2.83-.11-.39,2.72L47,419a1.5,1.5,0,0,0,2.94.59l7.51-29.46,51.28-.77a1.83,1.83,0,0,0,1.79-1.75" transform="translate(0 0)"/><path d="M356.16,153.81a271.67,271.67,0,0,0-39.77-2.73h0A269.2,269.2,0,0,0,275.6,154a77.19,77.19,0,1,1,80.56-.15M352,165.74a5.38,5.38,0,0,0-2.06,3.17,122.72,122.72,0,0,0-16.19-2.51l-2.14-.22-2.15-.12-4.29-.24c-2.87-.07-5.73-.16-8.6-.11-5.73.07-11.45.34-17.14.95a134,134,0,0,0-16.41,2.6,5.36,5.36,0,0,0-2.22-3.51c0-.58,0-1.11,0-1.6a272.24,272.24,0,0,1,35.6-2.26h0a272.1,272.1,0,0,1,35.6,2.26c0,.48,0,1,0,1.59m-2.33,4.92c-.11,3.56-9.86,15.57-21.49,26.68a35.89,35.89,0,0,0-23.57,0c-11.63-11.11-21.37-23.12-21.48-26.66H283a3.89,3.89,0,0,0,0-.68c11.2-.66,22.36-1.1,33.52-1.06,5.65,0,11.31.13,17,.37,5.42.17,10.81.63,16.23,1,0,.12,0,.24,0,.37Zm2.49,190-.44,13.08h-.14a57.85,57.85,0,0,0-19.49-9.81,63.06,63.06,0,0,0-22.16-2.23,60.39,60.39,0,0,0-21.51,5.91,58.69,58.69,0,0,0-6.56,3.7l-1.06,0,.45-13.09Zm8.27,33.69a46.54,46.54,0,0,1,4.09,19.4,72,72,0,0,1-1.56,14.7c-.28.49-.57,1-.88,1.46a39.47,39.47,0,0,1-3.05,4.06,47.17,47.17,0,0,1-7.47,7.06,54.86,54.86,0,0,1-18.56,9.1,68.64,68.64,0,0,1-10.3,2,79.1,79.1,0,0,1-10.56.45A105,105,0,0,1,291,449.79a1.29,1.29,0,0,0-1.52.92,1.27,1.27,0,0,0,.91,1.56,107.47,107.47,0,0,0,21.6,3.51,81.39,81.39,0,0,0,11-.1,74.18,74.18,0,0,0,11-1.74,59.34,59.34,0,0,0,20.34-9.18c1.37-1,2.68-2,4-3.12a45.77,45.77,0,0,1-6.16,9.18,42.61,42.61,0,0,1-15.47,11.3,53.78,53.78,0,0,1-19,4.19c-13.36.58-27.47-1.58-37.56-9.34a37.22,37.22,0,0,1-11.49-15.1A63.05,63.05,0,0,1,264,422.34a75.73,75.73,0,0,1-.28-10.16,44.9,44.9,0,0,1,1.66-9.76A46.81,46.81,0,0,1,275,385a53,53,0,0,1,15.91-12.42,54.36,54.36,0,0,1,19.5-5.7,48.35,48.35,0,0,1,5.1-.23c1.7.09,3.41.09,5.11.26s3.41.38,5.07.73l2.5.57a21.38,21.38,0,0,1,2.47.65,49.68,49.68,0,0,1,17.77,9.58,45.69,45.69,0,0,1,12,15.89M324.66,620.19c-.31,4.3-1.46,7.41-3.31,9a5.64,5.64,0,0,1-3.75,1.34l-.38-.14-.86.14c-1.61.07-6.45-.52-7.17-10.5-.46-6.33-.57-69-.52-144.09a73.48,73.48,0,0,0,9.4.11,68,68,0,0,0,7.1-.7c.05,75.39-.05,138.49-.51,144.84m-4.56,69.34-1.91,18L317,718.3c-.41-3.31-.81-6.63-1.22-9.93q-2.13-17.76-3.91-35.57l.5-20,.21-10.12,0-1.77a16.92,16.92,0,0,0,4.3.43l.78,0a16.72,16.72,0,0,0,3.6-.41v1.47l.14,9.89.33,19.61c-.5,5.88-1.09,11.75-1.65,17.62m4.56-481.91c.06,18.84.22,77.26.35,144.47l-16.17-.57c.12-67.38.29-125.86.34-144.36a19.85,19.85,0,0,1,7.1-1l.1-1.34.09,1.34a18.7,18.7,0,0,1,8.19,1.45M403.77,88A88,88,0,1,0,270,163.19c0,1.68,0,3.83.1,6.42v.13a6.14,6.14,0,0,0,2.22,4.93,6.56,6.56,0,0,0,1,.62c3.73,10.06,17.37,23.81,25.11,31.06-.05,18.21-.21,77-.35,144.79l-16.52-.58a7.57,7.57,0,0,0-7.82,7.29l-.46,13.1a7.44,7.44,0,0,0,1.95,5.3,58.3,58.3,0,0,0-4.8,4.63,53.34,53.34,0,0,0-11.55,19.49,51.38,51.38,0,0,0-2.33,11.25,82.94,82.94,0,0,0-.11,11.24,71.28,71.28,0,0,0,4.41,22.2,47.94,47.94,0,0,0,5.51,10.35,42.85,42.85,0,0,0,8.13,8.67,52.25,52.25,0,0,0,21.07,10c.78.18,1.57.34,2.35.5,0,75.9.07,139.63.55,146.27a27.32,27.32,0,0,0,3.4,12.05c0,.19,0,.37,0,.55l0,.2c0,.1,0,.32,0,.49l.07,1.16.11,2.46.17,5c.1,3.35.16,6.7.23,10.06q.19,10.07.26,20.15v.43l0,.22q3.1,17.79,5.78,35.65c.87,6,1.81,11.9,2.63,17.87l1.26,8.94.62,4.47.32,2.23.15,1.12,0,.28a4,4,0,0,0,.49,1.58,4.29,4.29,0,0,0,.28.42,3.34,3.34,0,0,0,.43.47,3.54,3.54,0,0,0,1.74.85,3.48,3.48,0,0,0,2.22-.38,3.53,3.53,0,0,0,.69-.49,3.4,3.4,0,0,0,.43-.47,3.46,3.46,0,0,0,.45-.78,3.09,3.09,0,0,0,.19-.56c.08-.34.09-.55.11-.64l2.33-17.9,2.48-17.89,2.62-17.87c.94-6,1.83-11.9,2.82-17.83l0-.18v-.41c.1-6.56.23-13.14.4-19.7l.29-9.83.2-4.87.12-2.4c0-.68.15-1.79.11-1.57a6.7,6.7,0,0,0,.08-.77A27.53,27.53,0,0,0,335.45,621c.48-6.69.59-71.5.54-148.31a48.63,48.63,0,0,0,4.58-1.84,51.22,51.22,0,0,0,18.37-14.34,56.88,56.88,0,0,0,10.28-20.55,75.83,75.83,0,0,0,2.53-22.36,53.33,53.33,0,0,0-5.45-22.06,51.51,51.51,0,0,0-9-12.71,7.62,7.62,0,0,0,2-4.83l.45-13.1a7.55,7.55,0,0,0-7.29-7.82l-16.59-.58c-.14-69.87-.31-130.35-.36-147.14,7.89-7.49,20.51-20.49,24-30.09a5.76,5.76,0,0,0,3.17-5.49v-.14c.12-3,.12-5.42.1-7.19a88.08,88.08,0,0,0,41-74.4" transform="translate(0 0)"/><path d="M317.87,24a4.31,4.31,0,0,0-3.22-.79c-1.19.19-2.18.39-3.3.65s-2.08.48-3.12.78c-2,.52-4,1.17-6.08,1.9a87.41,87.41,0,0,0-11.62,5.09A74.68,74.68,0,0,0,270.45,47a67.93,67.93,0,0,0-7.61,10.14,68.8,68.8,0,0,0-5.54,11.35,82.14,82.14,0,0,0-4.85,24.39,2,2,0,0,0,1.78,2h.19a2,2,0,0,0,1.26-.45,1.91,1.91,0,0,0,.7-1.33A77.45,77.45,0,0,1,262,70.45a64.51,64.51,0,0,1,5.59-10.17A61.69,61.69,0,0,1,275,51.39a68.12,68.12,0,0,1,18.89-13.06,79.79,79.79,0,0,1,10.78-4.11c1.89-.58,3.77-1.06,5.57-1.45.94-.22,1.87-.4,2.8-.56s2-.31,2.66-.39l.28,0a4.34,4.34,0,0,0,2.83-1.72,4.35,4.35,0,0,0-.93-6.05" transform="translate(0 0)"/><path d="M351.09,395.63,347,429.74H290a1,1,0,0,0-.08,2l59.83,4.46,3.23.24.13-3.23,1.53-37.33a1.79,1.79,0,0,0-3.57-.28" transform="translate(0 0)"/><path d="M338.26,387.65a1.81,1.81,0,0,0-1.75-1.88l-53.81-2-2.83-.11-.39,2.72L274.74,419a1.5,1.5,0,0,0,2.94.59l7.51-29.46,51.28-.77a1.83,1.83,0,0,0,1.79-1.75" transform="translate(0 0)"/></g></g></g></g></g></g></svg>